<svg width="24" height="25" viewBox="0 0 24 25" fill="none" xmlns="http://www.w3.org/2000/svg">
<g id="Frame 48095454">
<path id="calendar" d="M5.16567 10.4C4.95239 10.4 4.80005 10.5828 4.80005 10.7656V18.6875C4.80005 19.5102 5.43989 20.15 6.26255 20.15H16.9876C17.7797 20.15 18.4501 19.5102 18.4501 18.6875V10.7656C18.4501 10.5828 18.2672 10.4 18.0844 10.4H5.16567ZM18.4501 9.05938V7.9625C18.4501 7.17032 17.7797 6.5 16.9876 6.5H15.5251V4.91563C15.5251 4.73282 15.3422 4.55 15.1594 4.55H13.9407C13.7274 4.55 13.5751 4.73282 13.5751 4.91563V6.5H9.67505V4.91563C9.67505 4.73282 9.49224 4.55 9.30942 4.55H8.09067C7.87739 4.55 7.72505 4.73282 7.72505 4.91563V6.5H6.26255C5.43989 6.5 4.80005 7.17032 4.80005 7.9625V9.05938C4.80005 9.27266 4.95239 9.425 5.16567 9.425H18.0844C18.2672 9.425 18.4501 9.27266 18.4501 9.05938Z" fill="#1ABB9A"/>
</g>
</svg>
