<svg width="22" height="23" viewBox="0 0 22 23" fill="none" xmlns="http://www.w3.org/2000/svg">
<g clip-path="url(#clip0_152_218)">
<path fill-rule="evenodd" clip-rule="evenodd" d="M9.62499 2.33301C8.38253 2.33311 7.15811 2.63034 6.05389 3.19989C4.94967 3.76945 3.99766 4.59481 3.27729 5.60712C2.55692 6.61942 2.08908 7.78933 1.9128 9.01921C1.73653 10.2491 1.85693 11.5033 2.26395 12.6772C2.67098 13.8511 3.35283 14.9106 4.25262 15.7674C5.15241 16.6242 6.24405 17.2534 7.43646 17.6025C8.62887 17.9516 9.88747 18.0104 11.1073 17.7742C12.327 17.5379 13.4726 17.0134 14.4485 16.2443L17.7962 19.592C17.969 19.759 18.2006 19.8514 18.4409 19.8493C18.6813 19.8472 18.9112 19.7508 19.0812 19.5808C19.2511 19.4109 19.3475 19.181 19.3496 18.9406C19.3517 18.7003 19.2593 18.4687 19.0923 18.2958L15.7447 14.9482C16.6503 13.7992 17.2142 12.4185 17.3718 10.9641C17.5294 9.50964 17.2744 8.04019 16.6359 6.72393C15.9973 5.40766 15.0011 4.29775 13.7613 3.52122C12.5214 2.74469 11.088 2.33291 9.62499 2.33301ZM3.66666 10.1247C3.66666 8.54443 4.29441 7.0289 5.41181 5.9115C6.52921 4.79409 8.04474 4.16634 9.62499 4.16634C11.2052 4.16634 12.7208 4.79409 13.8382 5.9115C14.9556 7.0289 15.5833 8.54443 15.5833 10.1247C15.5833 11.7049 14.9556 13.2204 13.8382 14.3379C12.7208 15.4553 11.2052 16.083 9.62499 16.083C8.04474 16.083 6.52921 15.4553 5.41181 14.3379C4.29441 13.2204 3.66666 11.7049 3.66666 10.1247Z" fill="white"/>
</g>
<defs>
<clipPath id="clip0_152_218">
<rect width="22" height="22" fill="white" transform="translate(0 0.5)"/>
</clipPath>
</defs>
</svg>
